<?xml version="1.0" encoding="UTF-8" standalone="no"?><!DOCTYPE svg PUBLIC "-//W3C//DTD SVG 1.1//EN" "http://www.w3.org/Graphics/SVG/1.1/DTD/svg11.dtd"><svg width="100%" height="100%" viewBox="0 0 2048 958" version="1.1" xmlns="http://www.w3.org/2000/svg" xmlns:xlink="http://www.w3.org/1999/xlink" xml:space="preserve" xmlns:serif="http://www.serif.com/" style="fill-rule:evenodd;clip-rule:evenodd;stroke-linejoin:round;stroke-miterlimit:2;"><g><path d="M733.4,382.523l97.858,0.802c45.503,-1.775 62.468,-38.223 47.244,-64.058c23.927,2.031 69.072,84.59 66.059,97.271c-14.807,62.323 -54.909,74.776 -131.504,75.469l-204.28,0l0,-286.098l131.509,-0.763c0,0 118.365,9.29 120.798,-46.646c2.358,-54.208 -41.936,-57.364 -122.641,-55.704c-43.055,0.885 -129.665,0.074 -129.665,0.074l0,-92.466c84.8,-2.785 252.845,-14.495 306.729,41.147c43.884,45.316 44.866,106.678 -18.879,172.529c22.519,5.45 56.22,26.755 70.443,40.131c72.785,68.451 56.945,140.537 180.081,147.035c34.266,1.808 111.217,-0.993 130.774,-9.912c19.557,-8.919 29.336,-22.296 29.336,-40.134c0,-10.9 -3.159,-19.943 -9.478,-27.127c-6.319,-7.184 -17.451,-14.121 -33.398,-20.81c-15.947,-6.689 -39.867,-15.236 -71.761,-25.641l-20.761,-6.689c-38.513,-12.387 -69.504,-24.278 -92.973,-35.674c-23.469,-11.396 -42.124,-26.012 -55.964,-43.85c-13.841,-17.837 -20.761,-40.381 -20.761,-67.632c0,-30.224 10.531,-55.369 31.593,-75.436c21.062,-20.067 48.141,-34.807 81.238,-44.221c33.097,-9.414 68.3,-14.121 105.61,-14.121c33.699,0 68.451,4.583 104.256,13.749c35.805,9.166 69.955,22.668 102.451,40.505l-58.672,72.835c-28.885,-14.369 -54.46,-24.774 -76.725,-31.215c-22.265,-6.441 -46.336,-9.662 -72.212,-9.662c-28.885,0 -50.699,3.964 -65.442,11.891c-14.743,7.928 -22.115,18.58 -22.115,31.958c0,8.423 3.009,15.979 9.026,22.668c6.018,6.689 16.849,13.378 32.495,20.067c15.646,6.689 38.212,14.493 67.699,23.411l19.858,5.946c38.513,11.891 69.654,23.04 93.424,33.445c23.77,10.405 43.778,25.269 60.026,44.593c16.248,19.324 24.371,44.345 24.371,75.065c0,32.206 -10.23,59.333 -30.69,81.382c-20.46,22.049 -48.292,38.523 -83.495,49.424c-35.203,10.9 -123.384,18.087 -167.777,15.463c-62.65,-3.703 -118.205,-21.231 -118.205,-21.231c0,0 -45.085,-14.385 -81.173,-76.126c-33.851,-95.649 -94.608,-112.333 -112.627,-114.722c-10.96,-2.701 -23.78,-4.052 -38.46,-4.052l-83.642,0l0,0.053l-82.702,0l0,97.093l93.121,0l0,-0.018Z" style="fill:#ff9000;"/><g><path d="M125.377,670.863c9.361,2.452 17.218,6.297 23.571,11.535c6.352,5.238 11.033,11.2 14.042,17.887c3.009,6.687 4.514,13.708 4.514,21.063c0,20.283 -7.133,35.941 -21.398,46.975c-14.265,11.033 -34.66,16.55 -61.184,16.55l-84.922,0l0,-216.652l79.238,0c17.163,0 31.706,2.396 43.631,7.188c11.925,4.792 20.896,11.479 26.914,20.06c6.018,8.581 9.027,18.667 9.027,30.258c0,9.584 -2.786,18.444 -8.358,26.58c-5.572,8.136 -13.931,14.321 -25.075,18.556Zm-77.901,-65.196l0,50.485l26.413,0c24.518,0 36.777,-8.804 36.777,-26.413c0,-7.801 -2.73,-13.764 -8.191,-17.887c-5.461,-4.124 -13.429,-6.185 -23.905,-6.185l-31.094,0Zm33.434,141.091c13.596,0 23.292,-2.508 29.088,-7.523c5.795,-5.015 8.693,-11.758 8.693,-20.228c0,-8.247 -3.009,-14.822 -9.027,-19.726c-6.018,-4.904 -15.157,-7.355 -27.416,-7.355l-34.771,0l0,54.832l33.434,0Z" style="fill-rule:nonzero;"/><rect x="203.947" y="568.221" width="47.476" height="216.652" style="fill-rule:nonzero;"/><path d="M346.71,744.083l98.296,0l0,40.789l-145.772,0l0,-216.652l47.476,0l0,175.862Z" style="fill-rule:nonzero;"/><path d="M590.777,568.221l77.901,213.977l0,2.675l-50.485,0l-17.386,-51.823l-80.241,0l-17.051,51.823l-49.817,0l0,-2.675l77.901,-213.977l59.178,0Zm-57.506,126.715l54.832,0l-27.75,-82.582l-27.081,82.582Z" style="fill-rule:nonzero;"/><path d="M831.167,568.221l0,40.455l-67.537,0l0,176.197l-47.476,0l0,-176.197l-69.208,0l0,-40.455l184.221,0Z" style="fill-rule:nonzero;"/><path d="M906.728,746.089l98.964,0l0,38.783l-146.441,0l0,-216.652l144.769,0l0,38.449l-97.293,0l0,48.814l83.919,0l-5.349,38.115l-78.57,0l0,52.491Z" style="fill-rule:nonzero;"/><path d="M1137.422,789.553c-36.332,0 -62.911,-10.086 -79.74,-30.258c-16.828,-20.172 -25.243,-47.198 -25.243,-81.077c0,-27.416 4.681,-49.649 14.042,-66.701c9.361,-17.051 21.788,-29.31 37.279,-36.777c15.491,-7.467 32.932,-11.2 52.324,-11.2c13.596,0 26.078,1.616 37.446,4.848c11.368,3.232 22.735,8.191 34.103,14.878l-17.72,35.106c-15.825,-10.253 -32.988,-15.38 -51.488,-15.38c-37.669,0 -56.503,24.184 -56.503,72.552c0,24.072 5.238,42.35 15.714,54.832c10.476,12.482 25.298,18.723 44.467,18.723c9.807,0 18.389,-1.282 25.744,-3.845c7.355,-2.563 15.045,-6.185 23.069,-10.866l18.389,33.434c-12.036,7.133 -23.794,12.538 -35.273,16.215c-11.479,3.678 -23.682,5.517 -36.61,5.517Z" style="fill-rule:nonzero;"/><path d="M1382.492,568.221l47.476,0l0,216.652l-47.476,0l0,-89.937l-97.961,0l0,89.937l-47.476,0l0,-216.652l47.476,0l0,86.594l97.961,0l0,-86.594Z" style="fill-rule:nonzero;"/><path d="M1649.629,782.198l0,2.675l-52.491,0l-53.829,-78.904l-18.054,0l0,78.904l-47.476,0l0,-216.652l72.552,0c19.169,0 35.161,2.953 47.978,8.86c12.816,5.907 22.345,13.931 28.586,24.072c6.241,10.142 9.361,21.676 9.361,34.604c0,15.157 -3.789,28.252 -11.368,39.285c-7.578,11.033 -18.723,19.224 -33.434,24.574l58.175,82.582Zm-124.374,-112.004l20.395,0c13.374,0 23.682,-2.563 30.926,-7.69c7.244,-5.127 10.866,-13.596 10.866,-25.41c0,-10.253 -3.232,-17.943 -9.696,-23.069c-6.464,-5.127 -15.491,-7.69 -27.081,-7.69l-25.41,0l0,63.859Z" style="fill-rule:nonzero;"/><path d="M1796.07,568.221l77.901,213.977l0,2.675l-50.485,0l-17.386,-51.823l-80.241,0l-17.051,51.823l-49.817,0l0,-2.675l77.901,-213.977l59.178,0Zm-57.506,126.715l54.832,0l-27.75,-82.582l-27.081,82.582Z" style="fill-rule:nonzero;"/><path d="M1949.531,744.083l98.296,0l0,40.789l-145.772,0l0,-216.652l47.476,0l0,175.862Z" style="fill-rule:nonzero;"/></g><g><path d="M648.876,957.326c-15.725,0 -29.091,-4.088 -40.098,-12.265l10.064,-15.568c9.749,6.185 19.289,9.278 28.619,9.278c5.975,0 10.667,-0.943 14.074,-2.83c3.407,-1.887 5.111,-4.717 5.111,-8.491c0,-2.306 -0.55,-4.22 -1.651,-5.74c-1.101,-1.52 -3.04,-2.988 -5.818,-4.403c-2.778,-1.415 -6.945,-3.224 -12.501,-5.425l-3.617,-1.415c-6.709,-2.621 -12.108,-5.137 -16.197,-7.548c-4.088,-2.411 -7.338,-5.504 -9.749,-9.278c-2.411,-3.774 -3.617,-8.544 -3.617,-14.31c0,-6.395 1.835,-11.715 5.504,-15.961c3.669,-4.246 8.387,-7.364 14.152,-9.356c5.766,-1.992 11.898,-2.988 18.398,-2.988c5.871,0 11.925,0.97 18.162,2.909c6.238,1.939 12.187,4.796 17.848,8.57l-10.221,15.41c-5.032,-3.04 -9.487,-5.242 -13.366,-6.604c-3.879,-1.363 -8.072,-2.044 -12.58,-2.044c-5.032,0 -8.832,0.839 -11.401,2.516c-2.568,1.677 -3.853,3.931 -3.853,6.762c0,1.782 0.524,3.381 1.572,4.796c1.048,1.415 2.935,2.83 5.661,4.246c2.726,1.415 6.657,3.066 11.794,4.953l3.459,1.258c6.709,2.516 12.134,4.875 16.275,7.076c4.141,2.201 7.627,5.346 10.457,9.435c2.83,4.088 4.246,9.382 4.246,15.882c0,6.814 -1.782,12.554 -5.346,17.219c-3.564,4.665 -8.413,8.151 -14.545,10.457c-6.133,2.306 -13.078,3.459 -20.835,3.459Z" style="fill:#ff9000;fill-rule:nonzero;"/><path d="M749.829,957.326c-10.903,0 -20.154,-2.254 -27.754,-6.762c-7.6,-4.508 -13.34,-10.772 -17.219,-18.791c-3.879,-8.02 -5.818,-17.324 -5.818,-27.912c0,-11.741 2.359,-21.569 7.076,-29.484c4.717,-7.915 10.981,-13.785 18.791,-17.612c7.81,-3.826 16.485,-5.74 26.025,-5.74c10.903,0 20.154,2.254 27.754,6.762c7.6,4.508 13.314,10.772 17.14,18.791c3.826,8.02 5.74,17.324 5.74,27.912c0,11.741 -2.333,21.569 -6.998,29.484c-4.665,7.915 -10.903,13.785 -18.713,17.612c-7.81,3.826 -16.485,5.74 -26.025,5.74Zm0,-18.241c6.185,0 11.453,-1.389 15.803,-4.167c4.351,-2.778 7.6,-6.762 9.749,-11.951c2.149,-5.189 3.224,-11.296 3.224,-18.319c0,-11.112 -2.359,-19.787 -7.076,-26.025c-4.717,-6.238 -11.584,-9.356 -20.6,-9.356c-9.435,0 -16.616,3.066 -21.543,9.199c-4.927,6.133 -7.391,14.545 -7.391,25.238c0,11.112 2.359,19.787 7.076,26.025c4.717,6.238 11.636,9.356 20.757,9.356Z" style="fill:#ff9000;fill-rule:nonzero;"/><path d="M840.876,935.94l46.231,0l0,19.184l-68.56,0l0,-101.897l22.329,0l0,82.713Z" style="fill:#ff9000;fill-rule:nonzero;"/><path d="M937.741,957.326c-10.274,0 -18.713,-1.913 -25.317,-5.74c-6.604,-3.826 -11.401,-9.016 -14.388,-15.568c-2.988,-6.552 -4.482,-14.021 -4.482,-22.408l0,-60.383l22.329,0l0,57.71c0,8.806 1.73,15.646 5.189,20.521c3.459,4.875 9.487,7.312 18.084,7.312c8.177,0 13.943,-2.437 17.297,-7.312c3.355,-4.875 5.032,-11.191 5.032,-18.948l0,-59.283l22.329,0l0,59.912c0,10.378 -1.992,18.844 -5.975,25.396c-3.984,6.552 -9.409,11.322 -16.275,14.31c-6.867,2.988 -14.808,4.482 -23.823,4.482Z" style="fill:#ff9000;fill-rule:nonzero;"/><path d="M1081.467,853.227l0,19.027l-31.764,0l0,82.87l-22.329,0l0,-82.87l-32.55,0l0,-19.027l86.644,0Z" style="fill:#ff9000;fill-rule:nonzero;"/><rect x="1094.675" y="853.227" width="22.329" height="101.897" style="fill:#ff9000;fill-rule:nonzero;"/><path d="M1184.936,957.326c-10.903,0 -20.154,-2.254 -27.754,-6.762c-7.6,-4.508 -13.34,-10.772 -17.219,-18.791c-3.879,-8.02 -5.818,-17.324 -5.818,-27.912c0,-11.741 2.359,-21.569 7.076,-29.484c4.717,-7.915 10.981,-13.785 18.791,-17.612c7.81,-3.826 16.485,-5.74 26.025,-5.74c10.903,0 20.154,2.254 27.754,6.762c7.6,4.508 13.314,10.772 17.14,18.791c3.826,8.02 5.74,17.324 5.74,27.912c0,11.741 -2.333,21.569 -6.998,29.484c-4.665,7.915 -10.903,13.785 -18.713,17.612c-7.81,3.826 -16.485,5.74 -26.025,5.74Zm0,-18.241c6.185,0 11.453,-1.389 15.803,-4.167c4.351,-2.778 7.6,-6.762 9.749,-11.951c2.149,-5.189 3.224,-11.296 3.224,-18.319c0,-11.112 -2.359,-19.787 -7.076,-26.025c-4.717,-6.238 -11.584,-9.356 -20.6,-9.356c-9.435,0 -16.616,3.066 -21.543,9.199c-4.927,6.133 -7.391,14.545 -7.391,25.238c0,11.112 2.359,19.787 7.076,26.025c4.717,6.238 11.636,9.356 20.757,9.356Z" style="fill:#ff9000;fill-rule:nonzero;"/><path d="M1344.072,853.227l0,101.897l-24.216,0l-31.921,-47.489c-2.726,-4.193 -5.032,-7.836 -6.919,-10.929c-1.887,-3.093 -3.722,-6.578 -5.504,-10.457l0,68.875l-21.858,0l0,-101.897l24.059,0l34.752,52.207c0.419,0.629 1.363,2.07 2.83,4.324c1.468,2.254 2.804,4.377 4.01,6.369c1.206,1.992 2.228,3.931 3.066,5.818l0,-68.718l21.7,0Z" style="fill:#ff9000;fill-rule:nonzero;"/><path d="M1398.322,957.326c-15.725,0 -29.091,-4.088 -40.098,-12.265l10.064,-15.568c9.749,6.185 19.289,9.278 28.619,9.278c5.975,0 10.667,-0.943 14.074,-2.83c3.407,-1.887 5.111,-4.717 5.111,-8.491c0,-2.306 -0.55,-4.22 -1.651,-5.74c-1.101,-1.52 -3.04,-2.988 -5.818,-4.403c-2.778,-1.415 -6.945,-3.224 -12.501,-5.425l-3.617,-1.415c-6.709,-2.621 -12.108,-5.137 -16.197,-7.548c-4.088,-2.411 -7.338,-5.504 -9.749,-9.278c-2.411,-3.774 -3.617,-8.544 -3.617,-14.31c0,-6.395 1.835,-11.715 5.504,-15.961c3.669,-4.246 8.387,-7.364 14.152,-9.356c5.766,-1.992 11.898,-2.988 18.398,-2.988c5.871,0 11.925,0.97 18.162,2.909c6.238,1.939 12.187,4.796 17.848,8.57l-10.221,15.41c-5.032,-3.04 -9.487,-5.242 -13.366,-6.604c-3.879,-1.363 -8.072,-2.044 -12.58,-2.044c-5.032,0 -8.832,0.839 -11.401,2.516c-2.568,1.677 -3.853,3.931 -3.853,6.762c0,1.782 0.524,3.381 1.572,4.796c1.048,1.415 2.935,2.83 5.661,4.246c2.726,1.415 6.657,3.066 11.794,4.953l3.459,1.258c6.709,2.516 12.134,4.875 16.275,7.076c4.141,2.201 7.627,5.346 10.457,9.435c2.83,4.088 4.246,9.382 4.246,15.882c0,6.814 -1.782,12.554 -5.346,17.219c-3.564,4.665 -8.413,8.151 -14.545,10.457c-6.133,2.306 -13.078,3.459 -20.835,3.459Z" style="fill:#ff9000;fill-rule:nonzero;"/></g></g></svg>